<svg xmlns="http://www.w3.org/2000/svg" width="19" height="19" viewBox="0 0 19 19"><g><g><g><path fill="#fff" d="M9.403.003c-1.3 0-2.598.002-3.898-.002A5.464 5.464 0 0 0 0 5.466c0 2.625 0 5.248.003 7.873.001.276.018.555.061.828.222 1.399.888 2.549 1.99 3.436.975.783 2.094 1.191 3.343 1.197 2.67.01 5.34.003 8.012.002.217-.002.437-.018.654-.047a5.236 5.236 0 0 0 2.491-1.004c1.468-1.108 2.233-2.588 2.244-4.43.014-2.613.005-5.225.002-7.837a5.989 5.989 0 0 0-.062-.842 5.295 5.295 0 0 0-1.466-2.961C16.202.58 14.893.017 13.358.005 12.04-.005 10.721.003 9.403.003z"/></g><g><path d="M13.394 1.45c1.862.003 3.506 1.353 3.876 3.177.056.282.085.568.085.855 0 2.612.015 5.225-.005 7.837-.013 1.65-.781 2.867-2.244 3.632a3.679 3.679 0 0 1-1.706.404c-2.023.004-4.044.002-6.067.002H5.475a3.997 3.997 0 0 1-3.92-3.078 3.6 3.6 0 0 1-.106-.857c-.002-2.68-.007-5.356 0-8.034.005-1.708 1.168-3.255 2.798-3.756.41-.127.83-.185 1.26-.183h3.898c1.33 0 2.66-.002 3.99 0zM9.403.002c-1.3 0-2.598.002-3.898-.002A5.464 5.464 0 0 0 0 5.466C0 8.091 0 10.714.004 13.339c.001.276.018.555.061.828.222 1.399.888 2.549 1.99 3.436.975.783 2.094 1.191 3.343 1.197 2.67.01 5.34.003 8.012.002.217-.002.437-.018.654-.047a5.236 5.236 0 0 0 2.491-1.004c1.468-1.108 2.233-2.588 2.244-4.43.014-2.613.005-5.225.002-7.837a5.989 5.989 0 0 0-.062-.842 5.295 5.295 0 0 0-1.466-2.961C16.202.58 14.893.017 13.358.005 12.04-.005 10.721.003 9.403.003z"/></g><g><path fill="#fff" d="M15.188 2.895a.724.724 0 1 0-.003 1.448.724.724 0 0 0 .003-1.448zM4.339 9.4c-.001 2.778 2.27 5.06 5.04 5.065 2.8.003 5.082-2.265 5.084-5.058A5.073 5.073 0 0 0 9.48 4.342 5.071 5.071 0 0 0 4.339 9.4z"/></g><g><path d="M5.786 9.402a3.612 3.612 0 0 1 3.651-3.616c1.972.01 3.58 1.627 3.58 3.617a3.61 3.61 0 0 1-3.618 3.616 3.608 3.608 0 0 1-3.613-3.617zM4.339 9.4c-.001 2.778 2.27 5.06 5.04 5.065 2.8.003 5.082-2.265 5.084-5.058A5.073 5.073 0 0 0 9.48 4.342 5.071 5.071 0 0 0 4.339 9.4z"/></g><g><path d="M15.188 2.895a.722.722 0 1 1-.002 1.445.722.722 0 0 1 .002-1.445z"/></g></g></g></svg>