<svg xmlns="http://www.w3.org/2000/svg" width="333" height="47" viewBox="0 0 333 47"><defs><clipPath id="1rxla"><path d="M-4 18.526h337.014v-41.609H-4z"/></clipPath></defs><g><g><g><g><g/><g clip-path="url(#1rxla)"><path fill="#fff" d="M84.16 17.604l-.36-.015c-.043 0-.152.053-.33.157-.18.103-.29.156-.331.156-.02 0-.073-.053-.157-.156-.083-.104-.136-.157-.157-.157l-.393.015c-.241.01-.424.014-.55.014-.481 0-.927.047-1.335.143a5.99 5.99 0 0 1-1.335.141c-.23 0-.408-.016-.534-.048a7.955 7.955 0 0 1-.346-.093 4.438 4.438 0 0 0-.362-.096 2.508 2.508 0 0 0-.549-.047c-.271 0-.466.015-.581.047-.115.03-.204.063-.267.096a2.82 2.82 0 0 0-.174.093c-.052.032-.151.048-.297.048-.063 0-.157-.033-.283-.1a3.827 3.827 0 0 1-.377-.227 12.71 12.71 0 0 1-.345-.241c-.106-.076-.158-.133-.158-.17 0-.284.115-.53.346-.738a1.22 1.22 0 0 1 .848-.313c.168 0 .288.053.361.157.074.103.226.156.456.156.46 0 .811-.119 1.053-.355.24-.237.408-.53.502-.88.094-.35.141-.715.141-1.093v-1.023c.168 0 .372.1.613.299.24.198.446.327.613.383 0 .075.015.212.046.411.032.199.064.407.095.625.032.217.068.426.11.624.042.199.073.337.094.413.043.207.178.416.41.624.23.208.47.312.721.312.105 0 .247-.052.424-.156a2.63 2.63 0 0 0 .503-.383c.157-.151.293-.308.409-.468.115-.162.172-.29.172-.383a.7.7 0 0 0-.031-.143.95.95 0 0 0-.141-.17.725.725 0 0 0-.173-.143l.314-.284v-3.264c0-.019-.047-.056-.141-.113a2.377 2.377 0 0 0-.362-.171 50.602 50.602 0 0 1-.44-.17 2.181 2.181 0 0 0-.377-.113c-.02-.02-.115-.034-.283-.043a7.153 7.153 0 0 0-.408-.014c-.272 0-.482.057-.629.17a1.203 1.203 0 0 0-.344.425 1.924 1.924 0 0 0-.174.583c-.031.217-.068.43-.11.638-.021 0-.073.01-.157.029a.31.31 0 0 1-.251-.113 1.491 1.491 0 0 1-.173-.27 2.97 2.97 0 0 0-.172-.299.84.84 0 0 0-.22-.227v-4.74c0-.02.042-.067.125-.142a.86.86 0 0 1 .189-.143c.083-.018.135-.028.157-.028.315 0 .528.061.644.184.115.124.183.27.204.44.021.17.026.365.015.582-.01.217.027.412.11.583.085.17.236.317.456.44.22.123.582.184 1.084.184.084 0 .183-.052.299-.156a6.742 6.742 0 0 0 .722-.767c.115-.142.194-.24.236-.298a1.05 1.05 0 0 0 .126-.199c.063-.113.125-.24.188-.382a5.09 5.09 0 0 1 .188-.384c.063-.113.115-.18.158-.199.125-.094.397-.189.817-.284v1.448h2.136c.042-.227.15-.421.33-.581.178-.162.393-.261.644-.299V8.76c-.043 0-.1-.005-.174-.014a1.569 1.569 0 0 0-.172-.015.77.77 0 0 1-.172-.056 2.317 2.317 0 0 0-.315-.1 2.485 2.485 0 0 1-.314-.098.74.74 0 0 0-.173-.057h-.346c-.146 0-.303.009-.47.027a7.981 7.981 0 0 1-.818.057v3.464a.853.853 0 0 1 .189.142.816.816 0 0 1 .157.171v.142a.68.68 0 0 1-.205.51c-.136.132-.292.26-.47.384a3.652 3.652 0 0 0-.472.384.615.615 0 0 0-.204.454c0 .264.063.434.188.511.127.075.189.217.189.424 0 .02-.01.067-.03.143 0 .019-.048.066-.143.143a5.03 5.03 0 0 0-.172.141.712.712 0 0 0-.032.142c0 .19.068.317.204.383.136.066.288.1.455.1.357 0 .656-.08.896-.242.24-.16.498-.288.77-.383.02 0 .1-.014.235-.043.136-.028.278-.061.425-.098.146-.039.282-.072.408-.1.126-.029.2-.043.22-.043.188-.057.303-.151.346-.284a.92.92 0 0 0 .031-.411l-.063-.426a.64.64 0 0 1 .032-.355c.02-.038.125-.09.314-.156.188-.067.304-.119.345-.156.02-.02.074-.114.158-.284l.156-.313.346-.312c.168-.152.272-.236.315-.255.084-.038.251-.085.502-.142v2.413c.252.094.408.123.471.084.043-.018.1-.07.173-.155.074-.085.13-.128.173-.128.062-.02.173-.038.33-.057.157-.018.319-.047.487-.085.168-.038.33-.095.487-.17a.705.705 0 0 0 .329-.284c.022-.038.047-.113.079-.227l.095-.355c.031-.123.062-.241.094-.355.03-.113.046-.199.046-.256h.692c0 .057-.015.157-.047.299-.032.141-.063.288-.095.44a5.803 5.803 0 0 1-.204.738 5.253 5.253 0 0 1-.22.27c-.104.122-.23.25-.377.382a6.526 6.526 0 0 1-.423.356 1.133 1.133 0 0 1-.3.184c-.042.019-.14.024-.298.014-.156-.01-.33-.018-.518-.028-.188-.01-.367-.014-.534-.014-.168 0-.262.01-.283.028-.043.019-.073.086-.093.199a8.487 8.487 0 0 1-.08.37c-.031.131-.063.26-.094.382-.032.123-.057.194-.079.213a4.052 4.052 0 0 1-.596.61c-.147.124-.283.242-.41.355-.124.114-.219.19-.282.227a.59.59 0 0 1-.188.072l-.315.085-.314.085a.603.603 0 0 0-.188.071c-.02 0-.073.043-.157.127a4.947 4.947 0 0 1-.157.157h-.157c-.23 0-.408-.03-.534-.09a4.146 4.146 0 0 1-.36-.194 2.618 2.618 0 0 0-.41-.193c-.156-.061-.371-.091-.644-.091-.105 0-.267-.004-.487-.014m4.571-5.92h-.346v-.311h.346zm-.973-6.671c0-.076-.011-.123-.032-.142 0-.02-.047-.067-.142-.143-.093-.075-.151-.122-.172-.142a5.064 5.064 0 0 0-.582-.666 1.773 1.773 0 0 0-.502-.327 4.088 4.088 0 0 0-.613-.198c-.23-.057-.534-.152-.91-.285a.625.625 0 0 1-.174-.155.617.617 0 0 0-.173-.157H83.8c-.042.02-.151.076-.33.17-.178.095-.289.142-.33.142-.043-.018-.147-.118-.314-.298-.168-.18-.272-.279-.314-.298-.022-.019-.074-.033-.157-.042a1.808 1.808 0 0 0-.189-.015c-.042 0-.104.005-.189.015-.084.009-.125.023-.125.042-.063.038-.136.151-.22.34-.084.19-.126.322-.126.398H79.37c0 .02-.016.123-.049.313-.03.188-.062.416-.093.68a2.603 2.603 0 0 0-.016.626c.02.037.079.089.172.156a.63.63 0 0 1 .174.156c.02.02.036.061.046.128a.99.99 0 0 1 .016.156h-1.225V3.395a3.115 3.115 0 0 1-.408-.115 2.478 2.478 0 0 1-.896-.538.543.543 0 0 1-.172-.398c0-.076.01-.123.031-.143a1.54 1.54 0 0 1 .314-.17c.167-.076.273-.113.314-.113h6.566c.043-.038.147-.09.314-.156.168-.067.283-.11.346-.128 0-.019.053-.029.157-.029.251 0 .456.053.613.157.157.103.303.213.44.326.135.113.287.223.455.327.168.104.377.156.628.156.315 0 .519-.033.614-.099a.502.502 0 0 0 .188-.227c.031-.086.052-.167.063-.243.01-.074.1-.112.267-.112.188 0 .32.057.392.17.074.114.11.246.11.397v.34c-.02.115-.047.328-.079.64-.031.312-.063.643-.093.993-.032.35-.063.681-.095.994a8.783 8.783 0 0 1-.079.638 2.986 2.986 0 0 1-.518.256c-.156.057-.34.086-.55.086 0-.17.022-.303.063-.398.043-.094.095-.18.157-.255.063-.076.115-.156.158-.241a.75.75 0 0 0 .063-.327zM76.29 2.798v.312l-.345-.312zm6.032-1.93c-.063 0-.115-.048-.157-.142-.02-.095.032-.143.157-.143.147 0 .21.048.19.143-.043.094-.106.141-.19.141m13.242 12.535c.01-.255.016-.43.016-.525a.897.897 0 0 0 .345-.299c.106-.141.2-.292.283-.454.084-.16.158-.307.22-.44.063-.132.105-.227.126-.284.19-.018.518-.071.99-.155a753.36 753.36 0 0 0 3.912-.724c.062-.02.177-.062.344-.129.168-.066.273-.117.315-.156-.02.057.016.162.11.313.094.15.173.246.236.283.23.02.376.03.44.03.062 0 .162-.006.298-.016.136-.008.215-.014.235-.014.042-.019.152-.07.33-.156.179-.085.288-.137.33-.155h.974c.02 0 .073-.048.157-.143.084-.094.137-.142.158-.142a6.72 6.72 0 0 1 .659-.17c.335-.076.556-.123.66-.142v-.596a.86.86 0 0 1-.283.014 2.043 2.043 0 0 1-.393-.071 13.552 13.552 0 0 1-.392-.114.7.7 0 0 1-.251-.113c-.021-.019-.048-.09-.08-.213a4.455 4.455 0 0 1-.078-.384 4.518 4.518 0 0 0-.078-.383c-.031-.122-.058-.194-.079-.212a1.69 1.69 0 0 0-.298-.072c-.157-.028-.33-.056-.519-.084a17.87 17.87 0 0 1-.518-.086 2.336 2.336 0 0 0-.299-.043.751.751 0 0 1-.172-.055 2.317 2.317 0 0 0-.315-.1 6.517 6.517 0 0 1-.314-.086.928.928 0 0 0-.172-.043c-.02-.018-.095-.027-.22-.027h-.283c-.356 0-.629.066-.817.198a1.55 1.55 0 0 0-.455.497c-.115.199-.21.416-.283.653a2.195 2.195 0 0 1-.33.653c-.147.198-.35.364-.613.497-.262.132-.634.198-1.116.198-.292 0-.507-.056-.643-.17a1 1 0 0 1-.299-.425c-.063-.17-.1-.36-.11-.569a4.199 4.199 0 0 0-.078-.624v-.17c0-.19.105-.43.315-.725a4.78 4.78 0 0 1 .752-.823c.294-.255.597-.478.912-.667.314-.19.586-.284.817-.284.104 0 .188.015.251.043.063.029.126.066.19.113.061.047.13.086.203.114a.962.962 0 0 0 .33.042c.167 0 .298-.019.393-.056a5.3 5.3 0 0 0 .267-.114c.084-.037.172-.076.267-.113.095-.039.224-.057.392-.057.063 0 .22.01.472.028.041.019.152.119.33.299.178.18.288.278.33.298h1.319c.273.037.523.108.754.213.23.103.45.217.66.34.209.123.424.246.643.37.22.122.456.211.708.268v3.55c.146-.02.261 0 .345.056a.367.367 0 0 1 .158.241c.02.105.03.213.03.327v.227c0 .322-.062.536-.188.639-.125.104-.188.288-.188.554v.312c.02.02.079.066.172.142l.174.141c0 .039.015.115.047.229.03.113.068.235.11.368.042.133.078.26.11.383.03.123.046.194.046.214a.922.922 0 0 0 .158.17c.083.076.147.113.188.113.063.019.167.047.314.086.147.037.31.07.487.098.178.029.346.057.503.086.157.028.267.043.33.043v.284a2.65 2.65 0 0 0-.08.297l-.093.441c-.031.15-.063.297-.094.44a2.404 2.404 0 0 1-.08.297h-.312c-.127 0-.269.006-.425.016a8.16 8.16 0 0 1-.455.014h-.283A6.069 6.069 0 0 1 107 16.88a5.952 5.952 0 0 0-1.462-.17c-.126 0-.319.033-.581.098a9.573 9.573 0 0 0-.833.256c-.293.104-.564.208-.816.313a6.12 6.12 0 0 0-.534.24h-4.587a.614.614 0 0 0-.315-.297 1.926 1.926 0 0 0-.486-.142 12.484 12.484 0 0 0-.503-.071.888.888 0 0 1-.33-.086c-.147-.076-.278-.255-.392-.538a9.11 9.11 0 0 1-.315-.923 8.824 8.824 0 0 1-.22-.965 4.528 4.528 0 0 1-.078-.668c0-.095.005-.27.016-.525m2.874 1.561a1.9 1.9 0 0 1 .408.583h2.609a.776.776 0 0 1 .156-.17c.084-.077.147-.114.188-.114.043-.019.158-.043.346-.072.188-.028.394-.057.613-.084.22-.03.429-.057.628-.086.199-.028.32-.052.362-.071.02 0 .063-.029.125-.084a5.41 5.41 0 0 0 .205-.199 3.7 3.7 0 0 1 .204-.2l.125-.113c.022 0 .1-.01.237-.028a12.787 12.787 0 0 0 .863-.157c.126-.027.199-.061.22-.099.021-.02.042-.123.062-.312.022-.19.032-.332.032-.426 0-.094-.01-.237-.032-.426-.02-.19-.04-.294-.061-.312a3.14 3.14 0 0 0-.645-.312 9.336 9.336 0 0 1-.44-.171 1.238 1.238 0 0 1-.236-.114 5.032 5.032 0 0 1-.157-.156c-.084-.084-.136-.127-.156-.127-.022 0-.068-.004-.142-.014a1.353 1.353 0 0 0-.173-.015c-.294 0-.629.048-1.005.142-.377.094-.597.303-.66.625h-3.268c-.02 0-.057.062-.11.184l-.188.44c-.074.17-.142.35-.205.54-.063.189-.114.34-.156.454v.312c0 .228.084.422.251.582m23.955 2.64a31.007 31.007 0 0 1-1.963 0c-.314-.01-.534-.014-.66-.014-.084 0-.204-.037-.36-.113a1.574 1.574 0 0 1-.3-.17v-.909a2.931 2.931 0 0 0-.188-.738c-.084-.19-.168-.369-.252-.539a4.826 4.826 0 0 1-.22-.525c-.063-.18-.093-.431-.093-.753.062 0 .176.009.345.029l.534.056.534.057a2.3 2.3 0 0 1 .346.057c.041.018.146.114.314.284.168.17.271.274.314.311a25.172 25.172 0 0 0 1.493.924c.283.16.553.297.817.411.26.114.476.17.643.17.23 0 .381-.056.455-.17.074-.114.193-.17.362-.17.106 0 .158.01.158.029.041.019.104.061.188.127a.666.666 0 0 1 .157.156h2.796v-1.477h.849c0 .55-.044 1.014-.126 1.392a2.14 2.14 0 0 1-.456.951c-.22.256-.524.459-.911.61-.389.152-.885.256-1.492.313h-1.32c-.02 0-.075.043-.157.127-.084.086-.138.137-.157.157a.274.274 0 0 0-.079.014.407.407 0 0 1-.11.015c-.02 0-.074-.01-.157-.029a2.993 2.993 0 0 1-.345-.284 2.656 2.656 0 0 1-.314-.313c-.126 0-.342.005-.645.015M118.137 9.3c.043-.02.152-.066.33-.143l.33-.142.157-.298c.084-.16.136-.26.158-.297a.922.922 0 0 1 .156-.029c.02 0 .193.147.519.44.324.293.675.62 1.052.98.378.36.727.695 1.053 1.007.324.312.497.498.518.554.043 0 .172.005.393.014.22.01.36.014.424.014.858 0 1.676-.208 2.45-.624a.493.493 0 0 0 0 .256 5.3 5.3 0 0 0 .08.368c.03.133.067.251.11.356a.608.608 0 0 0 .124.213c.23.018.367.027.41.027.23 0 .443-.013.644-.042.199-.028.392-.118.58-.27-.083.113-.068.227.047.342.114.113.252.24.41.382.156.142.302.299.439.469.136.17.172.36.11.568-.022.037-.13.089-.33.156-.2.066-.31.118-.33.156-.147.132-.23.237-.251.312-.02.076-.037.137-.048.184-.01.048-.031.08-.062.1-.032.019-.13.028-.298.028a.588.588 0 0 1-.44-.199 3.117 3.117 0 0 1-.363-.468 5.913 5.913 0 0 0-.376-.525 1.002 1.002 0 0 0-.455-.34 3.45 3.45 0 0 1-.346-.044 18.127 18.127 0 0 0-.643-.084l-.724-.086-.581-.07h-1.32c-.042 0-.153-.048-.329-.142-.178-.095-.289-.142-.33-.142a8.004 8.004 0 0 0-.55-.185l-.66-.199a5.736 5.736 0 0 1-.628-.227c-.2-.085-.35-.184-.455-.298a1.535 1.535 0 0 1-.158-.256 25.067 25.067 0 0 0-.283-.497 9.553 9.553 0 0 1-.298-.553c-.094-.19-.173-.34-.236-.455a.336.336 0 0 0-.016-.084.334.334 0 0 1-.015-.086c0-.019.01-.066.031-.141m1.57-1.903c0-.246.043-.5.127-.766.083-.265.204-.512.362-.739.157-.227.35-.411.58-.552a1.46 1.46 0 0 1 .786-.214c.208 0 .356.038.44.114a.856.856 0 0 1 .188.241.904.904 0 0 0 .157.227c.063.067.19.099.377.099.189 0 .35-.042.487-.127.136-.085.193-.26.173-.526a3.374 3.374 0 0 0 2.607 1.221c.126 0 .315-.004.566-.014l.409-.014c.041 0 .104-.048.188-.142.083-.094.136-.143.158-.143 0-.018.02-.027.062-.027h.188c.042 0 .063.009.063.027 0 .076.016.214.047.413.032.198.064.407.095.624a9.608 9.608 0 0 0 .204 1.037c0 .018.047.066.142.141.093.076.152.123.172.143.02.075.032.123.032.141 0 .246-.095.483-.283.71a.899.899 0 0 1-.722.34c-.19 0-.362-.013-.52-.042a.855.855 0 0 1-.455-.27c-.042-.02-.106-.112-.188-.284-.084-.17-.137-.274-.158-.312a1.277 1.277 0 0 0-.487-.355 7.354 7.354 0 0 0-.596-.227 2.581 2.581 0 0 1-.55-.255.678.678 0 0 1-.314-.469zm22.858 9.695c-.138.086-.196.262-.175.526a3.674 3.674 0 0 1-.69-1.718 5.95 5.95 0 0 1 .03-1.83c-.21-.058-.36-.138-.455-.242a.794.794 0 0 1-.189-.37 1.962 1.962 0 0 1-.046-.411v-.426c0-.303.036-.582.11-.838.073-.255.156-.501.25-.737.096-.237.179-.493.253-.767.073-.274.11-.591.11-.95 0-.095-.006-.295-.015-.598a17.797 17.797 0 0 1-.017-.595 7.173 7.173 0 0 0-.33-.129c-.178-.065-.288-.117-.33-.155a2.108 2.108 0 0 0-.785-.256c-.294-.037-.581-.08-.863-.127a2.015 2.015 0 0 1-.708-.243c-.19-.113-.283-.301-.283-.567 0-.208.09-.383.268-.525.177-.142.392-.26.643-.355.252-.095.509-.19.77-.284.262-.094.477-.198.644-.312 0-.095.016-.256.047-.483.032-.227.064-.463.095-.71.032-.245.063-.477.095-.695.029-.217.056-.374.078-.469.061-.227.166-.407.314-.54.146-.131.32-.23.517-.297.2-.067.414-.11.646-.128.23-.019.449-.029.659-.029v3.635c0 .151.11.241.329.27.22.028.382.042.487.042h.347c.02-.02.072-.07.157-.156a3.82 3.82 0 0 1 .156-.156c.041 0 .2-.005.472-.015.271-.01.47-.014.598-.014.125 0 .302.005.532.014l.378.015c.02 0 .073.037.157.114l.282.255c.105.095.21.194.314.298.105.104.178.184.222.241.02.076.03.123.03.142 0 .057-.074.138-.22.242-.148.104-.32.212-.518.326-.2.114-.388.213-.566.298a3.072 3.072 0 0 1-.36.156c-.085.02-.196.048-.33.085a7.174 7.174 0 0 1-.41.1 8.446 8.446 0 0 0-.376.085 1.534 1.534 0 0 1-.205.043 1.4 1.4 0 0 1-.25-.043 10.067 10.067 0 0 1-.817-.213 1.196 1.196 0 0 0-.252-.057c-.043 0-.131.01-.267.028-.136.02-.226.029-.266.029a.66.66 0 0 1-.049.256.935.935 0 0 0-.063.227.303.303 0 0 0 .049.212c.04.067.134.119.281.156v5.31c0 .17.057.33.174.482.114.152.25.294.408.427.157.132.303.269.44.41.135.143.236.3.299.47h1.947c.02-.057.073-.162.158-.313.082-.151.146-.246.188-.284.02-.037.126-.09.313-.156.188-.066.294-.118.315-.157.063-.075.115-.231.157-.468.042-.236.105-.473.19-.71.081-.236.182-.448.297-.638a.567.567 0 0 1 .519-.284c.145 0 .256.08.33.24.071.162.125.346.155.555.033.208.043.411.033.61-.011.2-.016.337-.016.412 0 .265-.006.567-.017.909-.01.34-.119.634-.329.88-.02.018-.126.06-.313.128-.188.066-.305.117-.347.155a6.3 6.3 0 0 0-.141.299c-.074.16-.131.26-.171.297a9.113 9.113 0 0 1-1.352.995c-.252.15-.519.273-.8.369a2.637 2.637 0 0 1-.834.141c-.294 0-.503-.08-.63-.241a1.976 1.976 0 0 1-.297-.539 4.757 4.757 0 0 0-.236-.54c-.084-.16-.23-.24-.44-.24a.891.891 0 0 0-.485.126m.172-.95h.629v-.596h-.629zm-1.006-11.27h.659v-.57h-.66zm15.708 3.505c.23-.804.398-1.566.503-2.285v2.072l.408.127c.21.067.345.119.408.156.022.02.074.072.158.157s.146.127.188.127c.043.02.163.01.362-.028.199-.037.32-.056.36-.056 0-.417.054-.724.158-.923.105-.2.24-.36.408-.482.168-.124.367-.242.597-.356a3.25 3.25 0 0 0 .723-.51c.021-.038.074-.138.157-.3.084-.16.136-.26.157-.297a.942.942 0 0 1 .157-.028c.189 0 .32.056.393.17.073.114.226.171.455.171.126 0 .251-.01.378-.03.125-.018.208-.113.251-.283h4.586c.022.057.074.16.158.313.084.15.147.246.188.283.02.038.126.09.314.157.189.066.294.117.315.156.23.208.444.458.643.752.2.293.378.601.534.923.158.321.283.648.378.98.093.33.14.638.14.922 0 .076-.009.256-.03.54-.042.075-.11.174-.205.297a5.138 5.138 0 0 1-.298.355 2.78 2.78 0 0 1-.299.284c-.093.076-.161.113-.204.113h-7.195c-.062.172-.145.289-.25.356a3.847 3.847 0 0 1-.33.184 1.303 1.303 0 0 0-.299.199c-.083.075-.126.208-.126.398 0 .207.016.397.047.567.032.17.132.341.3.511.062 0 .198.005.408.014.209.01.345.015.408.015.251 0 .45-.019.597-.057.147-.039.277-.076.392-.114.116-.038.247-.076.394-.113.147-.039.344-.057.596-.057h.409c.21 0 .346.01.408.028a6.499 6.499 0 0 1-1.037.753 2.913 2.913 0 0 1-1.256.411 4.74 4.74 0 0 1 1.147.355c.408.18.79.27 1.146.27.042 0 .147-.01.314-.028.043 0 .1-.047.172-.143.075-.094.132-.141.174-.141a1.66 1.66 0 0 1 .299-.072c.156-.028.33-.057.518-.084.188-.03.36-.057.518-.086.157-.028.256-.052.299-.071.166-.076.277-.18.329-.313.052-.131.115-.264.19-.397.072-.132.183-.25.33-.354.145-.104.407-.157.785-.157.272 0 .502.02.69.057.189.039.283.227.283.568 0 .492-.153.942-.456 1.349-.303.407-.68.752-1.13 1.036-.45.283-.948.501-1.493.653a5.65 5.65 0 0 1-1.508.227c-.984 0-1.9-.061-2.748-.184-.849-.123-1.67-.459-2.467-1.008a1.824 1.824 0 0 1-.362-.398 6.122 6.122 0 0 1-.392-.625c-.126-.227-.241-.44-.346-.638a31.054 31.054 0 0 0-.22-.412 7.59 7.59 0 0 1-.141-.142.646.646 0 0 0-.173-.142 4.356 4.356 0 0 1-1.476-1.42c-.357-.567-.534-1.21-.534-1.93 0-.757.115-1.538.345-2.342m9.22 4.06c.011.066.016.118.016.156a.7.7 0 0 1-.14.44c-.095.122-.288.175-.582.156v-.312c.043-.039.147-.137.314-.299.168-.16.283-.26.345-.297a.435.435 0 0 1 .048.156m-8.593-.895c0 .208.032.408.095.597.063.19.162.35.299.482.136.133.35.217.643.256v-.284a.807.807 0 0 0-.172-.526.806.806 0 0 1-.174-.525V11.4c.043-.018.158-.061.346-.127.188-.067.294-.118.315-.157.167-.208.276-.515.33-.922a7.96 7.96 0 0 0 .077-.951c-.229 0-.407.024-.534.07a2.525 2.525 0 0 0-.36.17 5.725 5.725 0 0 0-.362.228 1.715 1.715 0 0 1-.471.213c0 .095-.005.27-.016.525-.01.256-.016.431-.016.526zm3.583-1.973c.083.085.188.156.313.213.126.057.257.119.393.185a.88.88 0 0 1 .33.27h4.272a.537.537 0 0 1 .158-.469c.125-.123.282-.218.47-.284a2.43 2.43 0 0 1 .567-.127c.188-.02.335-.029.44-.029v-.284a.76.76 0 0 0-.127-.383 2.752 2.752 0 0 0-.298-.412 46.321 46.321 0 0 1-.581-.682c-.02.039-.068.138-.142.299-.073.161-.131.26-.172.298-.062.076-.147.17-.252.283l-.314.341a6.78 6.78 0 0 1-.408.399h-4.776c0 .17.042.297.127.382m2.56-2.513c-.41.077-.812.19-1.21.341-.399.152-.743.34-1.037.569-.293.226-.44.481-.44.765h3.142a.505.505 0 0 1 .157-.454c.126-.113.283-.203.472-.27a2.43 2.43 0 0 1 .566-.127c.188-.02.333-.028.439-.028 0-.02.005-.066.016-.142.01-.076.014-.123.014-.143 0-.284-.13-.458-.392-.525a3.152 3.152 0 0 0-.77-.099c-.23 0-.55.038-.957.113m2.497.227c0 .19.084.284.251.284.168 0 .253-.094.253-.284 0-.207-.085-.312-.253-.312-.167 0-.251.105-.251.312m-2.544-2.839c-.252 0-.42-.047-.503-.141-.043-.039-.005-.066.11-.086.115-.018.246-.028.392-.028.147 0 .272.01.377.028.105.02.147.047.126.086-.084.094-.251.141-.502.141m16.666 10.932c.072.113.224.17.456.17.167 0 .292-.043.377-.129a.823.823 0 0 0 .188-.327c.042-.131.064-.264.064-.397v-.652c-.044-.057-.174-.123-.394-.199-.22-.076-.362-.104-.423-.085V8.42a2.545 2.545 0 0 1-.315-.427 43.59 43.59 0 0 0-.314-.497 1.916 1.916 0 0 0-.36-.411.697.697 0 0 0-.457-.17c-.294 0-.54.061-.738.184-.2.123-.446.184-.738.184 0-.548.136-.94.408-1.178.27-.237.722-.354 1.35-.354h.347c.04.019.145.07.313.156.167.085.272.137.315.155h1.005c.042.02.145.119.314.299.167.18.272.28.314.298.02 0 .089.005.205.014.113.01.204.015.266.015.063 0 .162-.005.299-.015a5.57 5.57 0 0 1 .235-.014c.02-.018.073-.071.158-.156.083-.085.135-.137.157-.156a3.72 3.72 0 0 1 .33-.07 38.7 38.7 0 0 1 .487-.086c.166-.029.33-.057.486-.086.158-.028.267-.043.33-.043 0-.037.004-.113.016-.226.01-.114.016-.19.016-.228 0-.264-.016-.487-.047-.667-.032-.18-.133-.401-.299-.667h.315l.156.156a.73.73 0 0 0 .19.156c.061.02.166.044.313.071.147.029.308.057.486.086.178.028.346.057.504.085.157.029.267.043.33.043l-.346.283c.064 0 .157.014.283.043.125.028.255.061.392.1.136.037.267.07.394.098.125.029.207.053.251.072.02 0 .073.047.157.141.082.096.134.143.157.143.292.132.559.236.8.311.24.076.45.162.63.256.176.095.318.237.423.427.104.188.158.463.158.822 0 .039-.013.123-.032.256L189.107 9.3c-.042.037-.193-.025-.455-.185a9.235 9.235 0 0 1-.833-.582c-.294-.227-.576-.44-.848-.639-.274-.198-.44-.317-.503-.355-.022-.019-.07-.009-.14.028a.421.421 0 0 1-.174.057v2.868h-.503V7.539c-.524.038-.921.147-1.193.327-.273.18-.483.407-.629.681a3.497 3.497 0 0 0-.33.923 7.725 7.725 0 0 1-.298 1.022c0 .019-.053.066-.157.141-.106.076-.157.123-.157.143 0 .019-.006.08-.016.184a2.114 2.114 0 0 0 0 .512c.01.122.016.193.016.212.02.113.057.308.11.583.051.274.113.567.189.88l.204.894c.063.284.114.482.156.595.19.323.419.54.692.654.27.113.534.199.786.256.25.056.48.117.69.184a.68.68 0 0 1 .44.383c-.062 0-.173.01-.33.028-.156.019-.326.043-.502.072-.18.028-.342.061-.487.098a9.494 9.494 0 0 0-.314.086c-.169.076-.28.18-.33.313a1.644 1.644 0 0 1-.236.397c-.105.132-.279.25-.518.354-.243.105-.624.157-1.147.157-.482 0-.886-.057-1.21-.17a3.474 3.474 0 0 0-1.146-.171c-.21 0-.377.02-.503.057a2.315 2.315 0 0 0-.362.142 4.32 4.32 0 0 1-.36.156 1.585 1.585 0 0 1-.534.071c0-.38.031-.658.094-.838.062-.18.165-.33.314-.454.145-.123.33-.246.55-.37.22-.122.486-.297.8-.524.021-.018.073-.071.157-.156s.147-.128.19-.128c0-.019.05-.028.156-.028.19 0 .318.057.393.17m4.822 2.101c-.062 0-.115-.047-.156-.142-.022-.095.031-.142.156-.142.146 0 .209.047.19.142-.044.095-.106.142-.19.142m.503-3.86c0-.058.041-.18.126-.37.082-.19.146-.312.188-.37h.158c.23 0 .433.048.613.142a.482.482 0 0 1 .266.454c0 .303-.153.53-.455.683-.305.15-.604.226-.896.226h-.188c-.084 0-.125-.009-.125-.028a9.898 9.898 0 0 1-.849-.341 9.094 9.094 0 0 1-.785-.397zm5.483-10.15c.302.084.612.193.926.326.315.132.586.27.817.411.23.143.346.27.346.383 0 .208-.106.412-.314.61-.21.2-.452.3-.723.3-.023 0-.075-.048-.157-.143a5.006 5.006 0 0 0-.157-.17c-.232-.133-.43-.25-.597-.355a1.799 1.799 0 0 1-.424-.355 1.401 1.401 0 0 1-.267-.469 2.034 2.034 0 0 1-.095-.666c.127 0 .34.042.645.128m5.575 13.67v-.425c.44-.13.87-.325 1.288-.58a3.466 3.466 0 0 0 1.005-.892.82.82 0 0 0 .157-.34c.022-.113.047-.222.079-.326.032-.103.079-.203.14-.298a.656.656 0 0 1 .284-.226V11.7a.35.35 0 0 1-.236-.143.825.825 0 0 1-.125-.538c.01-.094.016-.17.016-.227 0-.15.02-.273.062-.367.042-.094.085-.174.126-.24.043-.067.084-.143.126-.227a.749.749 0 0 0 .063-.326 1.84 1.84 0 0 0-.252-.978 13.773 13.773 0 0 0-.533-.807 7.444 7.444 0 0 1-.535-.877c-.167-.322-.25-.728-.25-1.218.292 0 .57.047.831.14.262.095.525.204.786.326.262.123.524.233.785.327a2.376 2.376 0 0 0 1.163.112c.115-.019.204-.112.267-.283.104-.019.299-.052.581-.099.283-.047.582-.104.895-.17.314-.066.613-.127.896-.184.283-.057.476-.104.581-.14.042 0 .152-.049.33-.143.178-.095.288-.142.33-.142.02 0 .094-.005.22-.014.125-.01.219-.014.282-.014.419 0 .765.09 1.038.27.272.18.512.397.722.652.209.256.413.516.612.781.2.265.435.492.708.682.02.17.047.468.077.894.032.425.068.87.11 1.335.042.464.08.904.11 1.32.032.416.048.709.048.88v2.668c.021.321.157.525.409.611.25.084.518.146.8.184.284.038.54.095.77.17.23.076.346.246.346.511a.96.96 0 0 1-.064.34c-.041.115-.146.2-.313.256 0-.056-.043-.16-.126-.311a1.299 1.299 0 0 0-.189-.285c-.04-.038-.115-.014-.22.072-.105.084-.178.127-.219.127 0 .057-.047.171-.14.341-.097.17-.122.293-.08.369.042.038.141.1.299.184a.86.86 0 0 0 .256.1h-.555c-.336 0-.618-.057-.85-.17a1.813 1.813 0 0 0-.815-.171c-.252 0-.43.057-.534.17-.105.114-.304.17-.598.17-.145 0-.303-.004-.47-.013-.168-.01-.283-.109-.347-.298h-5.215a.31.31 0 0 1-.156.212.881.881 0 0 1-.299.1 1.304 1.304 0 0 1-.33.014 2.767 2.767 0 0 0-.251-.014h-.283c-.104 0-.209-.01-.314-.029a.522.522 0 0 1-.267-.128c-.073-.065-.1-.173-.08-.325zm14.316.482h.104a.273.273 0 0 1-.104 0zm-8.677-1.874c.178.095.346.199.503.312.157.114.33.214.518.298.19.086.43.129.723.129.105 0 .261-.005.471-.015.21-.01.325-.024.346-.042.021 0 .063-.029.125-.085l.204-.185c.074-.066.142-.133.204-.199.063-.066.106-.108.127-.127.02 0 .094-.014.22-.044.126-.027.266-.056.423-.084.158-.029.299-.058.425-.086.126-.029.199-.052.22-.07.042-.02.099-.114.173-.284.073-.171.13-.275.172-.313a.724.724 0 0 1 .141-.156.773.773 0 0 1 .174-.127v-2.953a.69.69 0 0 1-.174-.142.985.985 0 0 1-.14-.17.439.439 0 0 1-.032-.115c0-.037.01-.094.031-.17a6.77 6.77 0 0 1 .157-.596 9.63 9.63 0 0 0 .11-.37c.032-.112.048-.188.048-.226 0-.019.005-.066.016-.142.01-.075.015-.132.015-.17 0-.227-.053-.46-.157-.695a2.503 2.503 0 0 0-.44-.668 2.48 2.48 0 0 0-.644-.512 1.522 1.522 0 0 0-.738-.198c-.105 0-.283.034-.535.1a8.73 8.73 0 0 0-.8.255c-.284.105-.55.209-.802.312a3.387 3.387 0 0 0-.503.241c-.04.02-.093.119-.156.299s-.115.28-.158.298c-.062.037-.22.094-.47.17-.252.076-.42.114-.503.114 0 .076-.016.213-.048.411-.031.199-.063.407-.095.625a9.479 9.479 0 0 1-.203 1.036c0 .039-.053.09-.157.156-.104.067-.157.119-.157.157l-.015.298a7.18 7.18 0 0 0-.016.412c0 .094.005.237.016.425.01.19.015.303.015.341.021.095.057.256.11.482.052.228.115.464.188.71.074.247.142.484.205.71.063.228.114.378.157.455.292.037.529.104.706.198m-5.796-8.347c-.062 0-.116-.047-.157-.141-.042-.096.01-.143.157-.143.146 0 .199.047.157.143-.02.094-.072.141-.157.141m41.706 8.966c.156-.027.318-.055.487-.082l.488-.084c.156-.027.265-.05.329-.069.063-.017.193-.072.392-.164.199-.092.403-.194.614-.306.208-.112.392-.235.549-.368.157-.133.236-.246.236-.341V9.641c.229-.153.377-.29.44-.413.062-.123.094-.278.094-.468 0-.133-.017-.256-.047-.369-.031-.114-.132-.19-.298-.227l.313-.312h2.294c.125.245.261.41.408.497.146.085.335.128.566.128.25 0 .48-.077.691-.228.208-.152.382-.332.519-.539.135-.208.239-.435.313-.682.073-.246.11-.463.11-.653.02 0 .051-.009.095-.028a.249.249 0 0 1 .094-.029c.02 0 .047.01.077.029.033.02.059.028.08.028.04.057.104.199.189.427.082.226.125.378.125.454v.481c0 .229.004.465.015.71.01.247.016.484.016.71v2.584c0 .663-.115 1.343-.346 2.044l-1.005-.908c.209-.039.324-.137.346-.299.02-.16.032-.307.032-.44 0-.188-.07-.392-.204-.61a4.735 4.735 0 0 0-.473-.625 7.497 7.497 0 0 0-.548-.553 6.452 6.452 0 0 1-.44-.426 1.32 1.32 0 0 1-.173-.015 1.58 1.58 0 0 0-.173-.013c-.043 0-.1.005-.173.013-.074.01-.122.015-.141.015a3.55 3.55 0 0 0-.41.27 9.372 9.372 0 0 0-.486.382c-.158.133-.294.252-.408.356-.116.104-.172.165-.172.184v3.55c-.044 0-.126.037-.253.113-.125.076-.21.133-.25.17-.043.114.02.36.188.738h2.765c.145.246.308.426.486.54l.504.326c.157.105.287.232.392.384.103.151.157.378.157.68h-3.488c-.062-.15-.151-.24-.267-.269a1.643 1.643 0 0 0-.392-.042h-.188c-.085 0-.137.01-.158.028-.022 0-.074.047-.156.142-.085.095-.138.142-.158.142h-.974c-.313 0-.54-.018-.676-.052a3.466 3.466 0 0 1-.345-.105 15.636 15.636 0 0 0-.298-.103 1.783 1.783 0 0 0-.503-.052c-.147 0-.262.016-.346.048a1.92 1.92 0 0 0-.234.107c-.075.04-.154.077-.237.109a.87.87 0 0 1-.314.048v-1.214c.063 0 .173-.014.33-.041m11.686-13.267a4.702 4.702 0 0 0-1.051-.37 7.895 7.895 0 0 0-1.131-.17 13.184 13.184 0 0 0-.974-.042 1.99 1.99 0 0 0-.188.014c-.085.01-.137.014-.158.014-.126 0-.36.014-.706.043-.346.029-.713.057-1.1.086-.389.028-.755.056-1.1.085-.345.028-.582.052-.708.07-.167.057-.266.137-.297.242a1.223 1.223 0 0 0-.048.354c0 .038.01.133.032.284 0 .039.051.09.158.157.103.066.155.118.155.156 0 .038-.01.113-.03.227a8.5 8.5 0 0 1-.079.37 2.583 2.583 0 0 1-.204.567c-.022.02-.053.028-.095.028h-.062c-.106 0-.168-.009-.189-.028a11.015 11.015 0 0 0-.314-.128c-.17-.067-.273-.118-.314-.156 0-.076-.017-.199-.047-.37-.031-.17-.063-.345-.093-.525-.033-.18-.07-.354-.11-.525l-.095-.369a.531.531 0 0 0-.252-.24 2.99 2.99 0 0 0-.393-.17 2.09 2.09 0 0 0-.408-.1c-.137-.02-.216-.038-.237-.058-.042-.037-.062-.094-.062-.17.02-.075.042-.123.062-.141.293-.039.624-.105.99-.2.366-.094.686-.227.959-.397h9.834v5.337c0 .02-.048.067-.141.142a1.28 1.28 0 0 1-.205.143.359.359 0 0 1-.125.056.547.547 0 0 1-.157.028c0-.605-.039-1.216-.11-1.83a32.425 32.425 0 0 0-.268-1.804c-.167-.246-.415-.449-.739-.61m-7.429 3.28a.718.718 0 0 1-.157.156 2.972 2.972 0 0 0-.189.156h-.314l-.173-.156a.662.662 0 0 1-.14-.157zm19.525 9c.072.113.225.17.455.17.167 0 .294-.043.377-.129a.795.795 0 0 0 .188-.327c.043-.131.062-.264.062-.397v-.652c-.04-.057-.17-.123-.392-.199-.22-.076-.36-.104-.423-.085V8.42a2.684 2.684 0 0 1-.314-.427c-.105-.17-.21-.336-.315-.497a1.852 1.852 0 0 0-.36-.411.692.692 0 0 0-.456-.17c-.294 0-.54.061-.738.184-.2.123-.445.184-.74.184 0-.548.137-.94.409-1.178.273-.237.723-.354 1.35-.354h.347c.042.019.147.07.314.156.168.085.272.137.313.155h1.005c.043.02.149.119.316.299.168.18.272.28.314.298.021 0 .089.005.204.014a3.3 3.3 0 0 0 .267.015c.062 0 .162-.005.299-.015a5.45 5.45 0 0 1 .236-.014c.02-.018.072-.071.157-.156.083-.085.136-.137.156-.156.064-.02.173-.042.331-.07.155-.03.318-.058.487-.086.167-.029.329-.057.487-.086.156-.028.267-.043.33-.043 0-.037.005-.113.014-.226.011-.114.016-.19.016-.228 0-.264-.016-.487-.047-.667-.032-.18-.131-.401-.299-.667h.316l.156.156a.775.775 0 0 0 .189.156c.063.02.167.044.314.071.147.029.31.057.487.086.178.028.346.057.502.085.158.029.267.043.33.043l-.345.283c.063 0 .157.014.282.043.125.028.257.061.392.1.138.037.269.07.394.098.125.029.209.053.251.072.022 0 .074.047.158.141.084.096.136.143.156.143.293.132.56.236.802.311.24.076.45.162.627.256.179.095.32.237.425.427.105.188.158.463.158.822 0 .039-.012.123-.032.256L270.82 9.3c-.041.037-.193-.025-.455-.185a9.58 9.58 0 0 1-.831-.582c-.294-.227-.577-.44-.85-.639-.272-.198-.44-.317-.502-.355-.021-.019-.069-.009-.14.028a.41.41 0 0 1-.174.057v2.868h-.503V7.539c-.524.038-.92.147-1.194.327-.272.18-.48.407-.629.681a3.584 3.584 0 0 0-.329.923 7.554 7.554 0 0 1-.298 1.022c0 .019-.053.066-.158.141-.105.076-.157.123-.157.143 0 .019-.005.08-.016.184-.01.105-.015.185-.015.242 0 .057.006.146.015.27.011.122.016.193.016.212.02.113.058.308.11.583.053.274.116.567.189.88.073.311.142.61.204.894.063.284.115.482.158.595.188.323.418.54.69.654.272.113.534.199.786.256.252.056.482.117.692.184a.68.68 0 0 1 .439.383c-.063 0-.172.01-.33.028-.157.019-.324.043-.503.072a5.61 5.61 0 0 0-.486.098c-.147.039-.252.067-.315.086-.167.076-.277.18-.329.313a1.576 1.576 0 0 1-.237.397c-.104.132-.276.25-.518.354-.24.105-.623.157-1.147.157-.48 0-.884-.057-1.21-.17a3.46 3.46 0 0 0-1.146-.171c-.21 0-.378.02-.502.057a2.428 2.428 0 0 0-.363.142 3.994 3.994 0 0 1-.36.156 1.58 1.58 0 0 1-.534.071c0-.38.031-.658.094-.838a1.02 1.02 0 0 1 .314-.454c.148-.123.331-.246.55-.37.22-.122.488-.297.8-.524.023-.018.075-.071.159-.156.083-.085.146-.128.188-.128 0-.019.052-.028.158-.028.188 0 .319.057.392.17m4.822 2.101c-.063 0-.115-.047-.156-.142-.022-.095.03-.142.156-.142.147 0 .21.047.189.142-.042.095-.105.142-.189.142m.503-3.86c0-.058.042-.18.126-.37.083-.19.146-.312.188-.37h.157c.23 0 .435.048.613.142a.479.479 0 0 1 .267.454c0 .303-.153.53-.456.683-.304.15-.602.226-.895.226h-.19c-.083 0-.124-.009-.124-.028a10.962 10.962 0 0 1-1.32-.568 6.761 6.761 0 0 1-.314-.17zm5.482-10.15c.303.084.612.193.927.326.315.132.587.27.816.411.232.143.346.27.346.383 0 .208-.104.412-.314.61-.209.2-.45.3-.723.3-.02 0-.072-.048-.156-.143a3.018 3.018 0 0 0-.158-.17c-.23-.133-.43-.25-.596-.355a1.855 1.855 0 0 1-.425-.355 1.423 1.423 0 0 1-.267-.469 2.036 2.036 0 0 1-.093-.666c.125 0 .34.042.643.128m12.159 1.547c.074.094.167.203.282.324.114.124.267.233.456.326.188.096.439.143.753.143.21 0 .35-.033.425-.1.073-.066.141-.14.204-.226s.142-.16.236-.226.267-.1.518-.1c.356 0 .765.103 1.225.312.46.207.828.415 1.1.623.042.018.098.113.172.284.074.169.121.263.142.282.041.038.152.095.33.17l.33.141a8.389 8.389 0 0 0 .126 1.19c.04.246.078.483.11.71.032.225.067.377.11.452 0 .039.034.099.11.185.074.084.145.174.22.268.073.096.145.185.22.269.073.086.108.137.108.156 0 .038-.01.146-.03.327a8.978 8.978 0 0 1-.093.593c-.044.218-.085.435-.127.653-.042.217-.075.382-.094.496 0 .037-.053.136-.157.297-.106.16-.158.259-.158.296v1.19c-.02.152-.047.336-.077.553a44.74 44.74 0 0 1-.095.623 11.27 11.27 0 0 1-.095.525c-.03.15-.058.226-.079.226h-2.293c0 .321-.115.585-.345.793a2.89 2.89 0 0 1-.818.51 3.815 3.815 0 0 1-1.005.269c-.357.047-.67.07-.942.07h-.817c-.042 0-.153-.046-.33-.14-.177-.096-.288-.143-.329-.143h-1.29a1.366 1.366 0 0 1-.25-.199 15.748 15.748 0 0 1-.408-.384 20.543 20.543 0 0 0-.66-.61c-.043-.037-.157-.09-.345-.155-.189-.067-.295-.119-.315-.156-.022-.02-.047-.086-.079-.199a10.614 10.614 0 0 1-.093-.37c-.032-.132-.065-.255-.095-.37a1.08 1.08 0 0 1-.047-.225.585.585 0 0 0-.173-.157.601.601 0 0 1-.172-.156 3.166 3.166 0 0 1-.205-.483 5.142 5.142 0 0 1-.08-.255.878.878 0 0 1-.03-.143V8.447c0-.207.099-.448.298-.723a5.7 5.7 0 0 1 .723-.81 7.94 7.94 0 0 1 .865-.709c.292-.208.534-.35.722-.426.02-.02.098-.038.236-.057.136-.018.276-.042.423-.07.146-.03.283-.057.41-.085.126-.029.208-.053.25-.072.043-.037.152-.137.33-.298l.331-.298c.083-.02.136-.028.155-.028.065 0 .131.047.205.142m-3.988 5.962c.01.075.014.123.014.141.02.02.08.067.174.143l.172.141c0 .039.015.128.047.27.032.142.066.299.11.469.041.17.079.326.11.468.032.141.048.231.048.27.144.548.371.927.674 1.135.303.209.601.364.896.469l.753.27c.209.075.303.245.284.51h1.664c.043-.018.146-.07.315-.155.167-.086.27-.138.314-.157.02 0 .083.004.19.014.103.01.207.015.313.015h.314c.104 0 .168-.01.188-.029.378-.17.69-.43.943-.781.252-.35.454-.733.612-1.15.158-.415.267-.837.33-1.262.064-.427.095-.801.095-1.122 0-.208-.038-.393-.11-.553a7.99 7.99 0 0 0-.236-.47 6.975 6.975 0 0 1-.237-.467 1.409 1.409 0 0 1-.109-.583v-.114c.043-.037.157-.089.346-.155.188-.066.294-.11.315-.128.04-.057.088-.18.14-.37.051-.188.08-.302.08-.34a1.77 1.77 0 0 0-.818.17 7.42 7.42 0 0 1-.267.114.975.975 0 0 1-.362.057c0-.133.016-.242.048-.326.031-.086.074-.166.126-.243a.974.974 0 0 0 .125-.283 1.76 1.76 0 0 0 .047-.454c-.23 0-.47.057-.722.17-.251.113-.366.312-.346.597-.294-.02-.53-.067-.706-.143-.179-.075-.346-.147-.503-.212a6.615 6.615 0 0 0-.488-.185 1.969 1.969 0 0 0-.627-.085c-.106 0-.232.004-.378.014s-.23.014-.25.014c-.044.019-.154.119-.33.299-.179.18-.288.278-.33.298a1.643 1.643 0 0 1-.252.07c-.126.029-.263.057-.409.086-.147.028-.287.057-.423.084-.138.029-.216.053-.236.071-.02.02-.063.086-.126.199l-.204.37c-.074.132-.137.26-.19.383a.922.922 0 0 1-.109.212 15.236 15.236 0 0 0-.612 1.022 5.87 5.87 0 0 0-.298.61c-.084.2-.126.346-.126.442a1 1 0 0 0 .017.17m17.922 6.161v-.425c.44-.13.868-.325 1.288-.58a3.488 3.488 0 0 0 1.006-.892.817.817 0 0 0 .155-.34c.021-.113.049-.222.08-.326.03-.103.078-.203.141-.298a.649.649 0 0 1 .283-.226V11.7a.342.342 0 0 1-.235-.143.795.795 0 0 1-.125-.538c.01-.094.014-.17.014-.227 0-.15.02-.273.063-.367.042-.094.083-.174.125-.24.043-.067.083-.143.127-.227a.749.749 0 0 0 .063-.326c0-.377-.084-.703-.251-.978a14.449 14.449 0 0 0-.535-.807 7.447 7.447 0 0 1-.535-.877c-.167-.322-.25-.728-.25-1.218.293 0 .57.047.833.14.26.095.522.204.785.326.261.123.522.233.786.327a2.365 2.365 0 0 0 1.161.112c.114-.019.204-.112.268-.283.105-.019.298-.052.58-.099.284-.047.582-.104.895-.17.316-.066.613-.127.896-.184.283-.057.476-.104.582-.14.041 0 .151-.049.33-.143.177-.095.286-.142.329-.142.02 0 .095-.005.22-.014.126-.01.22-.014.284-.014.417 0 .763.09 1.036.27.271.18.513.397.723.652.208.256.412.516.611.781.2.265.435.492.708.682.02.17.046.468.078.894.033.425.068.87.11 1.335.043.464.08.904.11 1.32.032.416.047.709.047.88v2.668c.02.321.158.525.409.611.251.084.518.146.801.184.283.038.538.095.77.17.23.076.346.246.346.511a.986.986 0 0 1-.063.34c-.044.115-.147.2-.315.256 0-.056-.042-.16-.125-.311a1.346 1.346 0 0 0-.188-.285c-.044-.038-.117-.014-.22.072-.107.084-.178.127-.22.127 0 .057-.047.171-.143.341-.093.17-.12.293-.077.369.042.038.14.1.297.184.1.055.187.088.258.1h-.555c-.335 0-.62-.057-.849-.17a1.822 1.822 0 0 0-.817-.171c-.251 0-.428.057-.534.17-.106.114-.303.17-.596.17-.147 0-.303-.004-.472-.013-.168-.01-.283-.109-.345-.298h-5.216a.314.314 0 0 1-.157.212.872.872 0 0 1-.298.1 1.301 1.301 0 0 1-.33.014 2.79 2.79 0 0 0-.25-.014h-.285c-.104 0-.208-.01-.313-.029a.513.513 0 0 1-.267-.128c-.075-.065-.1-.173-.079-.325zm14.316.482h.105a.275.275 0 0 1-.105 0zm-8.676-1.874c.177.095.344.199.502.312.158.114.33.214.518.298.189.086.429.129.723.129.104 0 .26-.005.47-.015.21-.01.326-.024.347-.042.02 0 .063-.029.125-.085l.205-.185a3.97 3.97 0 0 0 .204-.199 3.55 3.55 0 0 1 .125-.127c.02 0 .095-.014.22-.044.126-.027.267-.056.425-.084.157-.029.298-.058.424-.086.125-.029.198-.052.22-.07.041-.02.098-.114.172-.284.073-.171.13-.275.173-.313a.675.675 0 0 1 .142-.156.746.746 0 0 1 .172-.127v-2.953a.67.67 0 0 1-.172-.142.9.9 0 0 1-.142-.17.44.44 0 0 1-.032-.115c0-.037.011-.094.032-.17 0-.018.016-.09.047-.213.032-.123.067-.25.11-.382.042-.133.078-.256.11-.37a.998.998 0 0 0 .047-.227c0-.019.004-.066.016-.142.01-.075.016-.132.016-.17 0-.227-.054-.46-.158-.695a2.504 2.504 0 0 0-.44-.668 2.494 2.494 0 0 0-.643-.512 1.526 1.526 0 0 0-.74-.198c-.105 0-.28.034-.533.1a8.59 8.59 0 0 0-.8.255c-.284.105-.55.209-.803.312-.25.104-.418.185-.5.241-.045.02-.096.119-.159.299s-.114.28-.156.298c-.063.037-.22.094-.471.17-.253.076-.422.114-.504.114 0 .076-.016.213-.047.411l-.094.625a10.357 10.357 0 0 1-.205 1.036c0 .039-.052.09-.157.156-.105.067-.156.119-.156.157 0 .019-.006.118-.016.298a7.17 7.17 0 0 0-.016.412c0 .094.005.237.016.425.01.19.016.303.016.341.02.095.058.256.11.482.051.228.113.464.188.71.073.247.141.484.204.71.063.228.114.378.157.455.294.037.53.104.708.198m-5.797-8.347c-.063 0-.115-.047-.158-.141-.042-.096.011-.143.158-.143.146 0 .198.047.157.143-.02.094-.074.141-.157.141m27.316 9.695c-.136.086-.195.262-.173.526a3.648 3.648 0 0 1-.69-1.718 5.873 5.873 0 0 1 .031-1.83c-.21-.058-.362-.138-.456-.242a.792.792 0 0 1-.189-.37 1.887 1.887 0 0 1-.047-.411v-.426c0-.303.038-.582.11-.838.073-.255.157-.501.252-.737.093-.237.177-.493.251-.767.073-.274.11-.591.11-.95 0-.095-.005-.295-.016-.598-.01-.302-.015-.501-.015-.595-.042-.02-.153-.062-.33-.129-.179-.065-.289-.117-.33-.155a2.108 2.108 0 0 0-.786-.256c-.293-.037-.581-.08-.864-.127a2.009 2.009 0 0 1-.707-.243c-.189-.113-.282-.301-.282-.567 0-.208.088-.383.267-.525.177-.142.392-.26.644-.355.252-.095.508-.19.77-.284.262-.094.476-.198.643-.312 0-.095.016-.256.048-.483.031-.227.063-.463.094-.71.03-.245.062-.477.094-.695.031-.217.058-.374.079-.469.063-.227.167-.407.314-.54.146-.131.32-.23.518-.297.2-.067.413-.11.644-.128.23-.019.45-.029.659-.029v3.635c0 .151.11.241.331.27.22.028.383.042.487.042h.345a4.92 4.92 0 0 0 .158-.156c.083-.085.136-.138.156-.156.043 0 .2-.005.471-.015.272-.01.472-.014.598-.014s.304.005.534.014l.377.015c.02 0 .073.037.157.114l.283.255c.104.095.208.194.314.298.104.104.177.184.22.241.02.076.031.123.031.142 0 .057-.074.138-.22.242a6.64 6.64 0 0 1-.518.326c-.199.114-.387.213-.565.298a3.057 3.057 0 0 1-.362.156c-.083.02-.193.048-.33.085a6.899 6.899 0 0 1-.408.1 9.373 9.373 0 0 0-.378.085 1.46 1.46 0 0 1-.204.043c-.042 0-.126-.015-.251-.043a10.821 10.821 0 0 1-.817-.213 1.145 1.145 0 0 0-.251-.057c-.042 0-.131.01-.267.028-.136.02-.225.029-.267.029 0 .094-.016.18-.046.256a.886.886 0 0 0-.065.227.315.315 0 0 0 .048.212c.042.067.137.119.282.156v5.31c0 .17.059.33.174.482.114.152.251.294.408.427.158.132.303.269.44.41.135.143.236.3.298.47h1.948c.02-.057.073-.162.157-.313s.147-.246.19-.284c.02-.037.124-.09.314-.156.188-.066.292-.118.313-.157.063-.075.115-.231.158-.468.042-.236.104-.473.188-.71.083-.236.183-.448.298-.638a.565.565 0 0 1 .519-.284c.147 0 .257.08.329.24.074.162.126.346.157.555.032.208.043.411.032.61-.01.2-.016.337-.016.412 0 .265-.005.567-.016.909-.01.34-.12.634-.33.88-.02.018-.126.06-.314.128-.188.066-.304.117-.345.155-.02.039-.068.138-.142.299-.073.16-.13.26-.172.297a8.103 8.103 0 0 1-.628.511 9.592 9.592 0 0 1-.723.484c-.252.15-.519.273-.802.369-.282.094-.56.141-.831.141-.294 0-.504-.08-.629-.241a1.946 1.946 0 0 1-.298-.539 4.552 4.552 0 0 0-.236-.54c-.084-.16-.23-.24-.44-.24a.898.898 0 0 0-.487.126m.173-.95h.628v-.596h-.628zm-1.005-11.27h.66v-.57h-.66z"/></g><g clip-path="url(#1rxla)"><g><path fill="#fff" d="M2.1 17.201c.195-.158.44-.272.73-.34.293-.072.597-.128.918-.174.32-.043.6-.145.83-.303.02-.089.045-.249.074-.486.03-.236.064-.488.104-.75l.101-.75c.028-.237.042-.4.042-.49.04-.526.104-1.048.189-1.567.09-.516.132-1.048.132-1.592 0-.072-.005-.23-.014-.474a11.505 11.505 0 0 1-.014-.476.598.598 0 0 1-.16-.132.882.882 0 0 1-.133-.158.351.351 0 0 1-.028-.104c0-.229.06-.44.175-.634a1.2 1.2 0 0 0 .174-.63c0-.036-.008-.125-.028-.265l-.16-.275c-.088-.15-.133-.242-.133-.277a3.625 3.625 0 0 1-.115-.697 3.246 3.246 0 0 0-.132-.713 1.29 1.29 0 0 0-.35-.565c-.166-.158-.41-.239-.743-.239-.504 0-1 .061-1.487.186-.487.122-.96.254-1.427.394 0 .036-.006.145-.014.331-.011.183-.017.3-.017.354 0 .458.02.888.059 1.292.04.405.127.832.262 1.29.02.036.073.084.16.145.088.061.141.11.16.145 0 .018.006.102.015.25.011.15.014.26.014.33 0 .245-.13.494-.391.748-.262.257-.55.385-.862.385V5.138c0-.265.093-.483.279-.659.183-.176.402-.315.656-.422.25-.105.518-.178.802-.224a4.71 4.71 0 0 1 .685-.066h8.976v2.45l.76.29c-.332.086-.52.229-.572.422-.047.194-.07.402-.07.631 0 .194.017.334.056.423a1.34 1.34 0 0 0 .234.354c.04.045.06.119.06.223a.367.367 0 0 1-.102.265c-.07.071-.147.137-.234.196a1.352 1.352 0 0 0-.234.211.457.457 0 0 0-.1.305c0 .158.036.29.115.395.078.107.253.15.523.132a9.687 9.687 0 0 1-.597.17c-.298.08-.498.118-.597.118-.059 0-.126-.039-.202-.118-.08-.078-.119-.137-.119-.17 0-.036.048-.13.147-.277.096-.15.155-.242.174-.278 0-.017.006-.096.014-.236a4.246 4.246 0 0 0-.014-.843c-.02-.21-.174-.307-.467-.29V5.69c0-.018-.037-.038-.115-.066a3.56 3.56 0 0 0-.293-.079c-.116-.025-.237-.053-.363-.079a12.337 12.337 0 0 1-.307-.066h-.583c-.096 0-.262.013-.496.04-.233.026-.476.057-.729.092-.25.036-.493.067-.726.092a9.77 9.77 0 0 0-.496.066c0 .036-.006.145-.014.33-.011.184-.014.301-.014.355 0 .035-.009.101-.017.198a1.01 1.01 0 0 0 .017.303.84.84 0 0 0 .101.29c.048.089.13.14.248.158-.118.017-.2.07-.248.157a.859.859 0 0 0-.101.29 1.01 1.01 0 0 0-.017.303c.008.097.017.163.017.199 0 .05.003.17.014.356.008.183.014.293.014.328.056.018.163.061.321.132.155.07.25.123.29.158a.79.79 0 0 1 .03.13.74.74 0 0 1-.03.132c-.04.036-.135.09-.29.158a3.507 3.507 0 0 1-.321.132v4.11c.234.035.35.168.35.394 0 .229-.012.494-.029.791a3.99 3.99 0 0 0 .042.896c.048.298.24.516.569.659.214.104.476.145.786.117a6.35 6.35 0 0 1 .903-.013 2 2 0 0 1 .76.183c.212.107.319.344.319.713 0 .053-.003.127-.014.224-.009.097-.023.145-.043.145a.578.578 0 0 1-.146.145 3.515 3.515 0 0 1-.262.183 2.38 2.38 0 0 1-.293.16.587.587 0 0 1-.202.064H2.453c-.274 0-.448-.048-.527-.145a.593.593 0 0 1-.115-.38c0-.404.095-.686.29-.844m17.257.685c.095-.105.171-.237.22-.395.047-.158.081-.315.1-.473a.886.886 0 0 1 .116-.369c.04-.053.158-.114.352-.186.194-.068.33-.096.408-.079v-3.396c.27 0 .518.086.744.262.222.175.332.386.332.633 0 .209-.056.354-.175.433-.115.081-.174.216-.174.41 0 .264.093.508.279.737.183.227.295.535.335.921l2.125.527c-.214.09-.343.224-.391.41-.05.183-.087.371-.118.562a1.027 1.027 0 0 1-.203.489c-.107.134-.327.198-.656.198a.506.506 0 0 1-.293-.079 1.081 1.081 0 0 1-.217-.196 1.38 1.38 0 0 0-.22-.211.512.512 0 0 0-.32-.094c-.155 0-.302.033-.437.094-.138.061-.287.127-.453.198a4.484 4.484 0 0 1-.597.196c-.23.061-.504.092-.816.092h-.116a1.135 1.135 0 0 1-.174-.262 2.406 2.406 0 0 1-.147-.29c.234.018.397-.028.496-.132m8.162-1.08c.31-.14.67-.282 1.079-.422V9.8a.768.768 0 0 1-.335-.368 12.555 12.555 0 0 1-.189-.461 1.491 1.491 0 0 0-.234-.394c-.098-.115-.245-.173-.439-.173a1.9 1.9 0 0 0-.436.066c-.175.043-.355.091-.541.145-.183.053-.358.11-.524.17-.166.061-.287.12-.363.173-.04.036-.138.133-.293.29-.155.158-.25.245-.29.262-.04.018-.152.036-.335.054-.186.018-.386.038-.6.066a7.16 7.16 0 0 0-.582.092 2.03 2.03 0 0 0-.319.078c-.039.018-.09.08-.146.184-.06.106-.118.221-.175.343-.059.125-.118.242-.174.356-.06.115-.099.181-.118.199a6.86 6.86 0 0 1-.206.34 3.715 3.715 0 0 1-.262.37 1.331 1.331 0 0 1-.332.302.747.747 0 0 1-.394.12c-.138 0-.26-.015-.366-.04-.107-.026-.189-.11-.248-.25.253-.122.422-.242.51-.356.09-.115.132-.267.132-.46a.834.834 0 0 0-.118-.436 3.98 3.98 0 0 0-.248-.381 3.367 3.367 0 0 1-.231-.382.852.852 0 0 1-.101-.41h.29c.155 0 .32-.002.495-.013.175-.007.335-.017.482-.025.146-.01.247-.013.307-.013a2.5 2.5 0 0 0 .377-.04c.155-.026.315-.056.481-.092l.437-.094c.127-.026.2-.046.22-.064a.899.899 0 0 0 .115-.185c.059-.105.12-.224.191-.354.068-.132.124-.252.175-.356.048-.107.09-.168.13-.186.02-.015.106-.038.261-.064.158-.028.321-.053.499-.081.171-.026.332-.051.478-.079.147-.025.24-.048.279-.066.037 0 .138-.038.304-.117.166-.08.268-.127.307-.145h.146c.175 0 .423.056.744.17.32.115.645.255.977.423.33.168.633.346.918.539.281.193.461.361.537.501.234.42.336.83.307 1.224-.03.395-.025.814.014 1.252 0 .158.015.448.046.87.028.42.056.863.084 1.328l.09 1.331c.028.422.054.713.073.87.096.122.25.255.465.395.214.14.422.285.628.435.203.15.383.303.538.46.154.158.233.326.233.502a.631.631 0 0 1-.028.13l-1.225.554h-3.643c-.099 0-.172-.03-.22-.094a.427.427 0 0 1-.087-.209 2.154 2.154 0 0 1-.014-.224v-.157c0-.405.155-.677.467-.817M21.602 8.14h-.904v-.264h.904zm0-1.633h-.904v-.842h.904zM18.82 3.24a4.851 4.851 0 0 1 1.064-.038c.116.007.183.012.203.012.115.018.262.039.436.067.175.025.341.053.496.079.155.025.35.066.583.12v1.21c-.33 0-.642-.058-.932-.17a14.492 14.492 0 0 1-.876-.382c-.29-.142-.583-.277-.873-.41a3.012 3.012 0 0 0-.963-.249 6.19 6.19 0 0 1 .862-.24m18.552 6.759c.214-.748.37-1.453.465-2.122v1.923l.38.12c.194.061.32.11.38.145.02.018.065.066.144.143.078.081.138.12.177.12.037.017.15.01.332-.026.186-.036.299-.054.335-.054 0-.386.051-.671.147-.857.098-.183.222-.334.38-.445.155-.115.34-.224.552-.331.214-.105.439-.262.673-.473.02-.036.064-.128.143-.278.08-.147.127-.242.147-.277.076-.015.126-.026.146-.026.175 0 .296.054.366.158.065.107.209.158.422.158.116 0 .231-.008.347-.026.118-.017.194-.106.236-.264H47.4c.02.053.067.15.146.29.076.14.135.229.175.265.02.035.115.083.293.145.171.06.27.109.29.145.214.193.414.424.6.697.18.272.346.557.492.855.146.3.262.603.35.91.09.306.132.593.132.855 0 .072-.012.237-.029.502-.039.068-.104.16-.191.277-.087.115-.18.224-.276.328a3.436 3.436 0 0 1-.276.265c-.087.069-.152.104-.189.104h-6.675c-.06.158-.138.267-.237.328-.096.064-.197.12-.304.17-.107.054-.2.118-.276.187-.079.07-.115.193-.115.369 0 .193.014.369.042.526.028.158.12.316.276.474.059 0 .183.005.377.012.197.01.324.016.38.016.234 0 .417-.018.555-.054.135-.035.256-.071.363-.104a6.13 6.13 0 0 1 .366-.107c.135-.036.321-.05.552-.05h.38c.194 0 .321.007.38.024a5.983 5.983 0 0 1-.963.698 2.691 2.691 0 0 1-1.165.381c.329.054.687.163 1.064.331.377.165.735.25 1.064.25.037 0 .135-.008.29-.026.04 0 .093-.046.16-.132.068-.09.122-.133.161-.133.04-.017.133-.04.279-.066.144-.025.304-.05.479-.079.174-.025.337-.05.481-.079.146-.025.237-.048.279-.066.152-.068.256-.165.304-.287.048-.125.107-.247.177-.37a.935.935 0 0 1 .304-.33c.136-.097.378-.145.73-.145.25 0 .464.018.639.053.177.036.264.212.264.527 0 .456-.143.873-.422 1.252a3.871 3.871 0 0 1-1.05.96 5.14 5.14 0 0 1-1.385.607c-.504.14-.972.209-1.4.209-.912 0-1.762-.056-2.55-.17-.786-.115-1.55-.425-2.287-.934a1.654 1.654 0 0 1-.335-.37 5.996 5.996 0 0 1-.366-.58c-.116-.21-.223-.409-.318-.592a17.344 17.344 0 0 0-.206-.382 2.72 2.72 0 0 1-.132-.132.646.646 0 0 0-.158-.132 4.015 4.015 0 0 1-1.371-1.316c-.332-.527-.496-1.125-.496-1.791 0-.702.104-1.428.321-2.173m8.554 3.766c.009.06.014.109.014.145a.645.645 0 0 1-.13.407c-.087.117-.267.165-.54.145v-.288c.04-.035.138-.13.293-.277a2.33 2.33 0 0 1 .321-.277c.02.035.034.084.042.145m-7.974-.83c0 .194.031.377.09.552.06.176.152.326.276.448.127.125.327.204.6.24v-.265a.742.742 0 0 0-.163-.486.75.75 0 0 1-.158-.489v-.132c.037-.015.144-.056.321-.12.175-.06.27-.107.29-.142.155-.194.256-.479.307-.855.048-.38.07-.674.07-.886-.214 0-.377.023-.492.07a2.21 2.21 0 0 0-.338.154 7.561 7.561 0 0 0-.335.211 1.61 1.61 0 0 1-.437.199c0 .086-.003.252-.014.488-.011.237-.017.397-.017.486zm3.326-1.83a.989.989 0 0 0 .29.197c.118.053.239.109.366.173a.805.805 0 0 1 .307.249h3.964a.502.502 0 0 1 .144-.435c.115-.115.264-.201.439-.265.172-.06.349-.099.524-.117.174-.018.31-.025.408-.025v-.265a.739.739 0 0 0-.116-.356 2.895 2.895 0 0 0-.278-.382c-.107-.122-.209-.241-.307-.356a17.924 17.924 0 0 1-.231-.275c-.023.033-.065.128-.133.275-.067.15-.12.242-.16.277-.06.072-.138.158-.234.265-.095.104-.191.211-.29.316a5.936 5.936 0 0 1-.38.368H41.16c0 .158.04.275.119.357m2.376-2.334c-.38.072-.755.176-1.123.319a3.72 3.72 0 0 0-.963.526c-.27.211-.409.448-.409.71h2.917a.463.463 0 0 1 .144-.42c.118-.107.265-.188.44-.252.174-.06.348-.101.523-.117a4.48 4.48 0 0 1 .408-.028c0-.017.006-.06.014-.132a.908.908 0 0 0 .014-.13c0-.264-.12-.427-.363-.488a2.923 2.923 0 0 0-.715-.092c-.214 0-.51.036-.887.104m2.317.212c0 .175.076.264.234.264.152 0 .23-.089.23-.264 0-.194-.078-.29-.23-.29-.158 0-.234.096-.234.29M43.61 6.349c-.234 0-.389-.043-.465-.132-.042-.036-.005-.061.102-.079.107-.018.228-.025.363-.025.138 0 .253.007.352.025.096.018.135.043.115.079-.079.089-.233.132-.467.132"/></g></g></g></g><g><g><text dominant-baseline="text-before-edge" style="font-kerning:normal" fill="#fff" font-family="'Segoe UI','SegoeUI'" font-size="14" font-style="none" font-weight="400" letter-spacing="2.42" transform="translate(73 31)"><tspan>— Founded in 2015 —</tspan></text></g></g></g></g></svg>